<?xml version="1.0" standalone="no"?><!DOCTYPE svg PUBLIC "-//W3C//DTD SVG 1.1//EN" "http://www.w3.org/Graphics/SVG/1.1/DTD/svg11.dtd"><svg t="1624602283116" class="icon" viewBox="0 0 1024 1024" version="1.1" xmlns="http://www.w3.org/2000/svg" p-id="7656" xmlns:xlink="http://www.w3.org/1999/xlink" width="200" height="200"><defs><style type="text/css">@font-face { font-family: element-icons; src: url("chrome-extension://moombeodfomdpjnpocobemoiaemednkg/fonts/element-icons.woff") format("woff"), url("chrome-extension://moombeodfomdpjnpocobemoiaemednkg/fonts/element-icons.ttf ") format("truetype"); }
</style></defs><path d="M512 400a31.488 31.488 0 0 1-31.488-31.488V95.488a31.488 31.488 0 1 1 62.976 0v273.024c0 17.408-14.08 31.488-31.488 31.488zM512 960a445.184 445.184 0 0 1-316.8-131.2A446.528 446.528 0 0 1 64 512c0-71.168 16.192-139.2 48.128-202.24a451.84 451.84 0 0 1 128.768-154.496 31.488 31.488 0 0 1 38.208 50.048 388.928 388.928 0 0 0-110.72 132.736A381.76 381.76 0 0 0 126.976 512a384.448 384.448 0 0 0 112.768 272.32A382.976 382.976 0 0 0 512 896.96a384.448 384.448 0 0 0 272.32-112.768A382.976 382.976 0 0 0 896.96 512c0-61.184-13.888-119.616-41.344-173.76a388.096 388.096 0 0 0-110.72-132.736 31.36 31.36 0 1 1 38.208-50.048 453.76 453.76 0 0 1 128.768 154.432A443.52 443.52 0 0 1 960 512.128a445.184 445.184 0 0 1-131.2 316.608A447.232 447.232 0 0 1 512 960z" fill="#9EA7B4" p-id="7657"></path></svg>